<?xml version="1.0" encoding="UTF-8" standalone="no"?>
<svg
   height="11"
   viewBox="0 0 15 11"
   width="15"
   version="1.1"
   id="svg1"
   sodipodi:docname="Private.svg"
   xml:space="preserve"
   inkscape:version="1.3 (0e150ed6c4, 2023-07-21)"
   xmlns:inkscape="http://www.inkscape.org/namespaces/inkscape"
   xmlns:sodipodi="http://sodipodi.sourceforge.net/DTD/sodipodi-0.dtd"
   xmlns="http://www.w3.org/2000/svg"
   xmlns:svg="http://www.w3.org/2000/svg"><defs
     id="defs1" /><sodipodi:namedview
     id="namedview1"
     pagecolor="#505050"
     bordercolor="#ffffff"
     borderopacity="1"
     inkscape:showpageshadow="0"
     inkscape:pageopacity="0"
     inkscape:pagecheckerboard="1"
     inkscape:deskcolor="#505050"
     inkscape:zoom="32.375"
     inkscape:cx="0.49420849"
     inkscape:cy="0.6023166"
     inkscape:window-width="1920"
     inkscape:window-height="991"
     inkscape:window-x="-9"
     inkscape:window-y="-9"
     inkscape:window-maximized="1"
     inkscape:current-layer="svg1"><inkscape:page
       x="0"
       y="0"
       width="15"
       height="11"
       id="page3"
       margin="0 0 0.4633204"
       bleed="0" /></sodipodi:namedview><path
     d="M 0.58687259,1.6138996 V 9.6138997 H 2.5868726 v -2 c 1.6568542,0 3,-1.3431458 3,-3 0,-1.6568542 -1.3431458,-3.0000001 -3,-3.0000001 z m 10.00000041,0 v 5.0000001 c 0,1.6568542 1.343146,3 3,3 h 1 v -2 h -1 c -0.552285,0 -1,-0.4477153 -1,-1 v -1 h 2 v -2 h -2 V 1.6138996 Z M 2.5868726,3.6138997 c 0.5522847,0 1,0.4477153 1,1 0,0.5522847 -0.4477153,1 -1,1 z"
     fill="#417aec"
     id="path1"
     sodipodi:nodetypes="ccccssccssccsscccccccscc"
     style="fill:#ec4141;fill-opacity:1" /><g
     id="g1"
     transform="translate(0.08688259,-0.38610035)"
     style="fill:#f49b9b;fill-opacity:1"><path
       d="m 5.0926641,4 v 6 h 2 C 8.7495183,10 10.092664,8.6568542 10.092664,7 V 4 H 8.0926641 v 3 c 0,0.5522847 -0.4477153,1 -1,1 V 4 Z"
       fill="#ac73f1"
       id="path1-6"
       sodipodi:nodetypes="ccssccsccccc"
       style="fill:#f49b9b;fill-opacity:1" /></g></svg>
