<?xml version="1.0" encoding="UTF-8" standalone="no"?>
<svg
   height="11"
   viewBox="0 0 15 11"
   width="15"
   version="1.1"
   id="svg1"
   sodipodi:docname="Private.svg"
   xml:space="preserve"
   inkscape:version="1.3 (0e150ed6c4, 2023-07-21)"
   xmlns:inkscape="http://www.inkscape.org/namespaces/inkscape"
   xmlns:sodipodi="http://sodipodi.sourceforge.net/DTD/sodipodi-0.dtd"
   xmlns="http://www.w3.org/2000/svg"
   xmlns:svg="http://www.w3.org/2000/svg"><defs
     id="defs1" /><sodipodi:namedview
     id="namedview1"
     pagecolor="#505050"
     bordercolor="#ffffff"
     borderopacity="1"
     inkscape:showpageshadow="0"
     inkscape:pageopacity="0"
     inkscape:pagecheckerboard="1"
     inkscape:deskcolor="#505050"
     inkscape:zoom="45.254834"
     inkscape:cx="2.1434174"
     inkscape:cy="7.0268736"
     inkscape:window-width="1920"
     inkscape:window-height="991"
     inkscape:window-x="-9"
     inkscape:window-y="-9"
     inkscape:window-maximized="1"
     inkscape:current-layer="svg1" /><path
     d="m 0,2 v 8 H 2 V 8 C 3.6568542,8 5,6.6568542 5,5 5,3.3431458 3.6568542,2 2,2 Z M 2,4 C 2.5522847,4 3,4.4477153 3,5 3,5.5522847 2.5522847,6 2,6 Z"
     fill="#417aec"
     id="path1"
     sodipodi:nodetypes="ccccssccscc"
     style="fill:#ec4141;fill-opacity:1" /><g
     id="g1"
     transform="translate(-0.49999)"
     style="fill:#f49b9b;fill-opacity:1" /><path
     d="m 7.863023,3.9965916 c -1.657,0 -3,1.3429999 -3,2.9999999 v 3.0000001 h 2 V 6.9965915 c 0,-0.552 0.4480001,-1 1,-1 h 1.0000001 v -2 z"
     style="fill:#ef8888;fill-opacity:1"
     id="path1-2" /><path
     d="m 9.5528546,1.9783302 v 2 h 2.0000004 v -2 z m 0,4 V 9.9892719 H 11.552855 V 5.9783302 Z"
     style="fill:#ec4141;fill-opacity:1"
     id="path1-8"
     sodipodi:nodetypes="cccccccccc" /></svg>
