<?xml version="1.0" encoding="UTF-8" standalone="no"?>
<svg
   height="11"
   viewBox="0 0 15 11"
   width="15"
   version="1.1"
   id="svg2"
   sodipodi:docname="Protected.svg"
   inkscape:version="1.3 (0e150ed6c4, 2023-07-21)"
   xmlns:inkscape="http://www.inkscape.org/namespaces/inkscape"
   xmlns:sodipodi="http://sodipodi.sourceforge.net/DTD/sodipodi-0.dtd"
   xmlns="http://www.w3.org/2000/svg"
   xmlns:svg="http://www.w3.org/2000/svg">
  <defs
     id="defs2" />
  <sodipodi:namedview
     id="namedview2"
     pagecolor="#505050"
     bordercolor="#ffffff"
     borderopacity="1"
     inkscape:showpageshadow="0"
     inkscape:pageopacity="0"
     inkscape:pagecheckerboard="1"
     inkscape:deskcolor="#505050"
     inkscape:zoom="32.375"
     inkscape:cx="3.3050193"
     inkscape:cy="4.2779923"
     inkscape:window-width="1920"
     inkscape:window-height="991"
     inkscape:window-x="-9"
     inkscape:window-y="-9"
     inkscape:window-maximized="1"
     inkscape:current-layer="svg2" />
  <path
     d="m 1.050193,1.4594595 v 8 h 2 v -2 c 0.772,0 1.468,-0.3 2,-0.779 v 2.779 h 2 v -3 c 0,-0.552 0.448,-1 1,-1 h 1 v -2 h -1 c -0.781,0 -1.486,0.306 -2.02,0.795 -0.107,-1.56 -1.393,-2.795 -2.98,-2.795 z m 8,4 v 2 c 0,1 1,2 2,2 h 1 c 1,0 2,-1 2,-2 v -2 c 0,-1 -1,-2 -2,-2 h -1 c -1,0 -2,1 -2,2 z m -6,-2 c 0.552,0 1,0.448 1,1 0,0.552 -0.448,1 -1,1 z m 8,2 h 1 v 2 h -1 z"
     fill="#44bd44"
     id="path1"
     sodipodi:nodetypes="cccccccssccscscssssssssscsccccccc"
     style="fill:#f3a00e;fill-opacity:1" />
  <path
     d="m 8.050193,3.4594595 c -1.657,0 -3,1.343 -3,3 v 3 h 2 v -3 c 0,-0.552 0.448,-1 1,-1 h 1 v -2 z"
     fill="#ffffff"
     fill-opacity="0.39216"
     id="path2" />
</svg>
