<?xml version="1.0" encoding="UTF-8" standalone="no"?>
<svg
   height="11"
   viewBox="0 0 15 11"
   width="15"
   version="1.1"
   id="svg2"
   sodipodi:docname="Public.svg"
   inkscape:version="1.3 (0e150ed6c4, 2023-07-21)"
   xml:space="preserve"
   xmlns:inkscape="http://www.inkscape.org/namespaces/inkscape"
   xmlns:sodipodi="http://sodipodi.sourceforge.net/DTD/sodipodi-0.dtd"
   xmlns="http://www.w3.org/2000/svg"
   xmlns:svg="http://www.w3.org/2000/svg"><defs
     id="defs2" /><sodipodi:namedview
     id="namedview2"
     pagecolor="#505050"
     bordercolor="#ffffff"
     borderopacity="1"
     inkscape:showpageshadow="0"
     inkscape:pageopacity="0"
     inkscape:pagecheckerboard="1"
     inkscape:deskcolor="#505050"
     inkscape:zoom="45.254834"
     inkscape:cx="5.4358834"
     inkscape:cy="7.5903494"
     inkscape:window-width="1920"
     inkscape:window-height="991"
     inkscape:window-x="-9"
     inkscape:window-y="-9"
     inkscape:window-maximized="1"
     inkscape:current-layer="g2"><inkscape:page
       x="0"
       y="0"
       width="15"
       height="11"
       id="page1"
       margin="1.7456698 0 0"
       bleed="0" /></sodipodi:namedview><path
     d="m 0.30935922,1.6906408 v 8 H 2.3093592 v -2 c 0.772,0 1.468,-0.3 2,-0.779 0.7190461,-0.4371632 0.9141778,-1.3771974 0.98,-2.426 -0.107,-1.56 -1.393,-2.795 -2.98,-2.795 z m 1.99999998,2 c 0.552,0 1,0.448 1,1 0,0.552 -0.448,1 -1,1 z"
     fill="#44bd44"
     id="path1"
     sodipodi:nodetypes="ccccccsccscc"
     style="fill:#0cd239;fill-opacity:1" /><path
     d="m 4.3093592,6.6906408 c -3.99999998,-7.00000002 -3.99999998,-7.00000002 0,0 z"
     fill="#ffffff"
     fill-opacity="0.39216"
     id="path2"
     sodipodi:nodetypes="cc" /><g
     id="g2"
     transform="translate(-0.50771201)"><g
       id="g3"
       transform="matrix(0.80176035,0,0,1,1.4792813,-0.30935922)"><path
         d="m 7.9516063,9.9765625 c 1.6568541,0 2.9999997,-0.9416014 2.9999997,-2.5984556 L 10.924045,3.8588254 H 8.9240456 l 0.027561,3.5192815 c 0.00432,0.5522738 -0.4477153,1 -1,1 z"
         fill="#ac73f1"
         id="path1-2"
         sodipodi:nodetypes="csccscc"
         style="fill:#8ce3a0;fill-opacity:1" /><path
         d="m 7.9576857,9.980695 c -1.6568542,0 -3.0000002,-0.9416014 -3.0000002,-2.5984556 L 4.9301248,3.8629579 H 6.930125 l 0.027561,3.5192815 c 0.00433,0.5522738 0.4477153,1 1,1 z"
         style="fill:#8ce3a0;fill-opacity:1"
         id="path1-5"
         sodipodi:nodetypes="csccscc" /></g></g><path
     d="m 9.8140648,1.6906558 v 8 h 2.0000002 c 1.006286,-8.915e-4 1.9451,-0.5062362 2.5,-1.3457 0.714711,-1.296777 0.467059,-2.3383794 0,-3.30863 -0.5549,-0.8394638 -1.493714,-1.3448085 -2.5,-1.3457 v -2 z m 2.0000002,4 c 0.552285,0 1,0.4477153 1,1 0,0.5522847 -0.447715,1 -1,1 z"
     fill="#6f91f0"
     id="path1-1"
     sodipodi:nodetypes="cccccccccscc"
     style="fill:#0cd239;fill-opacity:1" /></svg>
